<?xml version="1.0" encoding="UTF-8"?>
<!DOCTYPE svg PUBLIC "-//W3C//DTD SVG 1.1//EN" "http://www.w3.org/Graphics/SVG/1.1/DTD/svg11.dtd">
<!-- Creator: CorelDRAW X7 -->
<svg xmlns="http://www.w3.org/2000/svg" xml:space="preserve" width="11in" height="11in" version="1.1" style="shape-rendering:geometricPrecision; text-rendering:geometricPrecision; image-rendering:optimizeQuality; fill-rule:evenodd; clip-rule:evenodd"
viewBox="0 0 11000 11000"
 xmlns:xlink="http://www.w3.org/1999/xlink">
 <defs>
  <style type="text/css">
   <![CDATA[
    .fil1 {fill:#202020}
    .fil0 {fill:#F2D042}
   ]]>
  </style>
 </defs>
 <g id="Layer_x0020_1">
  <metadata id="CorelCorpID_0Corel-Layer"/>
  <g id="_2868878485616">
   <path class="fil0" d="M11062 5561c0,3037 -2462,5500 -5500,5500 -3037,0 -5500,-2463 -5500,-5500 0,-3038 2463,-5500 5500,-5500 3038,0 5500,2462 5500,5500z"/>
   <path class="fil1" d="M5555 6279c-347,0 -628,-281 -628,-627 0,-346 281,-627 628,-627 346,0 627,281 627,627 0,346 -281,627 -627,627zm627 815c0,-993 804,-1797 1796,-1797 948,0 1725,734 1792,1665 13,-101 19,-203 19,-307 0,-1215 -902,-2220 -2073,-2382 107,-272 166,-569 166,-879 0,-1241 -940,-2262 -2146,-2391 843,147 1484,883 1484,1769 0,992 -804,1797 -1796,1797 -992,0 -1797,-805 -1797,-1797 0,-782 501,-1448 1199,-1694 -1013,283 -1755,1213 -1755,2316 0,320 62,625 175,903 -1012,205 -1794,1045 -1911,2087 255,-682 912,-1168 1683,-1168 993,0 1797,804 1797,1797 0,992 -804,1796 -1797,1796 -171,0 -336,-24 -493,-68 354,203 763,320 1200,320 733,0 1388,-327 1830,-844 441,517 1097,844 1829,844 356,0 694,-78 998,-216 -130,29 -265,45 -404,45 -992,0 -1796,-804 -1796,-1796z"/>
   <path class="fil1" d="M7184 5789c-2,24 -4,48 -7,72 0,2 -1,11 -2,18 -2,10 -5,28 -4,27 -15,90 -37,179 -65,266 -13,41 -29,82 -45,122l0 2c-5,11 -9,21 -14,31 -10,21 -20,42 -30,62 -41,82 -89,161 -142,235 -11,16 -22,31 -34,47 -4,4 -19,23 -24,29 -29,35 -59,69 -91,102 -29,30 -60,60 -92,89 -16,15 -34,30 -51,44 -9,8 -18,15 -26,22 -3,2 -5,4 -7,5l-1 1c-71,54 -145,102 -222,145 -38,21 -77,41 -116,59 -10,5 -21,9 -31,14l-3 1c-24,10 -47,19 -71,28 -86,30 -173,55 -262,73 -20,4 -41,8 -61,11 -10,2 -21,3 -31,5 -2,0 -4,0 -6,1 -48,5 -96,9 -144,11 -98,4 -195,-1 -291,-11 -2,-1 -5,-1 -8,-1 -7,-1 -14,-2 -20,-4 -23,-3 -47,-8 -70,-12 -46,-9 -92,-20 -137,-33 -42,-12 -84,-25 -125,-40 -22,-8 -43,-17 -65,-25l-3 -1c-13,-6 -25,-11 -38,-17 -80,-38 -158,-81 -232,-130 -35,-23 -70,-47 -103,-72l-3 -2c-9,-8 -18,-15 -27,-22 -19,-16 -39,-33 -58,-50 -65,-60 -126,-123 -183,-191 -4,-6 -19,-24 -23,-29 -12,-16 -23,-31 -35,-47 -26,-37 -51,-75 -75,-114 -23,-40 -45,-80 -66,-121 -9,-18 -18,-36 -26,-54 -5,-11 -10,-21 -15,-32 -1,-2 -2,-4 -2,-5 -1,-1 -1,-2 -2,-4 -33,-84 -61,-169 -82,-258 -11,-43 -19,-86 -27,-130 -2,-11 -3,-22 -5,-33 0,-1 0,-2 0,-3 -3,-24 -5,-48 -7,-72 -8,-97 -8,-195 0,-292 2,-24 4,-48 7,-72 0,-1 0,-4 1,-7 1,-7 2,-18 3,-21 8,-49 18,-98 30,-147 21,-87 49,-172 82,-254 5,-10 9,-19 13,-28 10,-21 20,-42 30,-62 21,-41 43,-81 66,-121 23,-36 46,-72 71,-107 12,-18 24,-35 37,-52 10,-13 20,-25 31,-38 57,-67 118,-131 184,-189 15,-14 30,-27 45,-40 5,-4 32,-25 36,-29 34,-26 68,-50 103,-73 76,-50 157,-94 240,-133 11,-4 21,-9 31,-13l2 -1c19,-8 38,-15 57,-22 44,-16 88,-30 133,-43 42,-12 85,-22 128,-31 23,-5 47,-9 70,-13 8,-2 16,-3 24,-4 4,-1 14,-2 22,-3 93,-10 188,-14 282,-10 45,2 90,5 135,10 3,1 13,2 20,3 6,1 15,2 17,2 26,5 52,9 79,15 88,18 176,43 261,74 19,7 38,14 57,22l2 1c10,4 20,9 31,13 41,20 82,40 123,63 76,42 150,90 220,143 4,3 24,19 29,24 18,14 35,29 52,45 34,30 67,61 98,94 30,31 59,63 86,95 4,5 25,32 30,37 11,15 22,30 33,46 53,74 101,153 142,235 10,20 20,41 30,62 4,8 7,16 11,23l1 3c18,46 35,91 50,138 27,86 48,175 63,265 1,7 2,14 3,20 0,3 1,6 1,8 3,24 5,48 7,72 4,49 6,97 6,146 0,46 -2,91 -5,137zm-123 508c-12,29 -4,8 0,0zm-1306 1001c18,-2 9,-1 0,0zm-454 0c-8,-1 -16,-2 0,0zm-419 -115c-9,-3 -25,-11 0,0zm-1001 -1307c2,10 3,24 0,0zm335 -1244l1 -1c10,-13 4,-5 -1,1zm668 -512c-9,3 -30,11 0,0zm1289 0c30,11 9,3 0,0zm1002 1305c-3,-17 -1,-9 0,0zm-949 -1703c-792,-294 -1732,-41 -2269,611 -277,336 -441,739 -475,1173 -33,416 71,844 286,1201 447,742 1324,1122 2171,956 815,-160 1484,-848 1612,-1670 18,-113 29,-227 30,-341 -4,-861 -549,-1631 -1355,-1930z"/>
  </g>
 </g>
</svg>
